<svg width="21" height="20" viewBox="0 0 21 20" fill="none" xmlns="http://www.w3.org/2000/svg">
<g clip-path="url(#clip0_238_17679)">
<path fill-rule="evenodd" clip-rule="evenodd" d="M10.2457 0.5C7.88651 0.501224 5.60468 1.3368 3.80823 2.85732C2.01177 4.37784 0.817838 6.48416 0.439908 8.79963C0.061979 11.1151 0.524695 13.4887 1.74533 15.4961C2.96596 17.5035 4.86491 19.0137 7.10262 19.7567C7.5963 19.8484 7.78225 19.5424 7.78225 19.2822C7.78225 19.0221 7.77237 18.2678 7.76908 17.4431C5.0045 18.0403 4.42032 16.2765 4.42032 16.2765C3.96943 15.1311 3.31777 14.8301 3.31777 14.8301C2.41599 14.2181 3.38525 14.2296 3.38525 14.2296C4.38412 14.2999 4.90906 15.2489 4.90906 15.2489C5.79439 16.7592 7.23427 16.3223 7.80035 16.0671C7.88921 15.4273 8.14757 14.9921 8.43226 14.745C6.22388 14.4963 3.9036 13.6487 3.9036 9.86248C3.88992 8.88055 4.25638 7.93095 4.92716 7.21016C4.82514 6.96146 4.48449 5.95681 5.02425 4.5922C5.02425 4.5922 5.85857 4.32713 7.75757 5.60503C9.38642 5.16212 11.105 5.16212 12.7338 5.60503C14.6312 4.32713 15.4638 4.5922 15.4638 4.5922C16.0052 5.95354 15.6646 6.95818 15.5626 7.21016C16.2355 7.93107 16.6027 8.88232 16.5878 9.86576C16.5878 13.6602 14.2626 14.4963 12.0509 14.7401C12.4063 15.0477 12.7239 15.6482 12.7239 16.571C12.7239 17.8931 12.7124 18.9566 12.7124 19.2822C12.7124 19.5457 12.8918 19.8533 13.3953 19.7567C15.6333 19.0136 17.5324 17.5031 18.7531 15.4954C19.9737 13.4877 20.4361 11.1137 20.0578 8.79801C19.6794 6.48233 18.4849 4.37599 16.6879 2.85573C14.8908 1.33548 12.6084 0.500448 10.249 0.5H10.2457Z" fill="#FCE3D2"/>
<path d="M4.07082 14.6876C4.04943 14.7367 3.97044 14.7514 3.90627 14.717C3.84209 14.6827 3.79437 14.6189 3.81741 14.5681C3.84045 14.5174 3.91779 14.5043 3.98197 14.5387C4.04614 14.573 4.09551 14.6385 4.07082 14.6876Z" fill="#FCE3D2"/>
<path d="M4.4749 15.1342C4.44082 15.1513 4.40183 15.1561 4.36461 15.1477C4.32739 15.1393 4.29425 15.1184 4.27085 15.0884C4.20667 15.0197 4.1935 14.9248 4.24287 14.8822C4.29224 14.8397 4.3811 14.8593 4.44528 14.9281C4.50946 14.9968 4.52427 15.0917 4.4749 15.1342Z" fill="#FCE3D2"/>
<path d="M4.86627 15.7019C4.80538 15.7445 4.70171 15.7019 4.64411 15.6169C4.62818 15.6016 4.61552 15.5833 4.60687 15.5631C4.59821 15.5428 4.59375 15.5211 4.59375 15.4991C4.59375 15.4771 4.59821 15.4553 4.60687 15.4351C4.61552 15.4148 4.62818 15.3965 4.64411 15.3813C4.705 15.3403 4.80867 15.3812 4.86627 15.4647C4.92387 15.5481 4.92551 15.6594 4.86627 15.7019Z" fill="#FCE3D2"/>
<path d="M5.39786 16.2521C5.34355 16.3127 5.2333 16.2963 5.14279 16.2145C5.05229 16.1327 5.03089 16.0214 5.08519 15.9625C5.1395 15.9036 5.24975 15.92 5.34355 16.0002C5.43735 16.0803 5.45545 16.1932 5.39786 16.2521Z" fill="#FCE3D2"/>
<path d="M6.14329 16.5728C6.1186 16.6498 6.0067 16.6841 5.8948 16.6514C5.7829 16.6187 5.70885 16.527 5.73024 16.4485C5.75164 16.37 5.86518 16.334 5.97873 16.37C6.09227 16.406 6.16468 16.4927 6.14329 16.5728Z" fill="#FCE3D2"/>
<path d="M6.95648 16.6284C6.95648 16.7086 6.86433 16.7773 6.74585 16.7789C6.62736 16.7806 6.53027 16.7151 6.53027 16.6349C6.53027 16.5548 6.62242 16.486 6.7409 16.4844C6.85939 16.4828 6.95648 16.5466 6.95648 16.6284Z" fill="#FCE3D2"/>
<path d="M7.71267 16.5021C7.72748 16.5823 7.6452 16.6657 7.52672 16.6854C7.40824 16.705 7.30456 16.6576 7.28975 16.579C7.27494 16.5005 7.36052 16.4154 7.47571 16.3941C7.5909 16.3729 7.69786 16.4219 7.71267 16.5021Z" fill="#FCE3D2"/>
</g>
<defs>
<clipPath id="clip0_238_17679">
<rect width="20" height="20" fill="white" transform="translate(0.249023)"/>
</clipPath>
</defs>
</svg>
