<svg width="20" height="20" viewBox="0 0 20 20" fill="none" xmlns="http://www.w3.org/2000/svg">
<g clip-path="url(#clip0_495_407)">
<path d="M11.0726 9.98994C11.0726 12.8339 8.78276 15.1394 5.95826 15.1394C3.13376 15.1394 0.84375 12.8339 0.84375 9.98994C0.84375 7.14598 3.13359 4.84033 5.95826 4.84033C8.78293 4.84033 11.0726 7.14598 11.0726 9.98994Z" fill="#FCE3D2"/>
<path d="M16.6829 9.99005C16.6829 12.667 15.538 14.838 14.1256 14.838C12.7133 14.838 11.5684 12.667 11.5684 9.99005C11.5684 7.31307 12.7131 5.14209 14.1254 5.14209C15.5378 5.14209 16.6827 7.31238 16.6827 9.99005" fill="#FCE3D2"/>
<path d="M18.9783 9.98998C18.9783 12.3879 18.5757 14.333 18.0789 14.333C17.5821 14.333 17.1797 12.3884 17.1797 9.98998C17.1797 7.59154 17.5823 5.64697 18.0789 5.64697C18.5755 5.64697 18.9783 7.59137 18.9783 9.98998Z" fill="#FCE3D2"/>
</g>
<defs>
<clipPath id="clip0_495_407">
<rect width="20" height="20" fill="white"/>
</clipPath>
</defs>
</svg>
