<svg width="21" height="20" viewBox="0 0 21 20" fill="none" xmlns="http://www.w3.org/2000/svg">
<g clip-path="url(#clip0_238_17682)">
<path d="M10.8369 20C16.3598 20 20.8369 15.5228 20.8369 10C20.8369 4.47715 16.3598 0 10.8369 0C5.31407 0 0.836914 4.47715 0.836914 10C0.836914 15.5228 5.31407 20 10.8369 20Z" fill="#FCE3D2"/>
<path d="M17.5033 9.99991C17.5033 9.19289 16.8483 8.53792 16.0413 8.53792C15.6437 8.53792 15.2928 8.68997 15.0355 8.94728C14.0413 8.23383 12.6612 7.76599 11.1407 7.70751L11.8074 4.5847L13.9711 5.04084C13.9945 5.59055 14.4507 6.035 15.0121 6.035C15.5852 6.035 16.053 5.56716 16.053 4.99406C16.053 4.42096 15.5852 3.95312 15.0121 3.95312C14.6027 3.95312 14.2518 4.18704 14.0881 4.53792L11.667 4.0233C11.5969 4.01161 11.5267 4.0233 11.4682 4.05839C11.4097 4.09348 11.3746 4.15196 11.3513 4.22213L10.6144 7.70751C9.05886 7.7543 7.66704 8.21043 6.6612 8.94728C6.40389 8.70166 6.04131 8.53792 5.65535 8.53792C4.84833 8.53792 4.19336 9.19289 4.19336 9.99991C4.19336 10.5964 4.54424 11.0993 5.05886 11.3332C5.03546 11.4736 5.02377 11.6256 5.02377 11.7777C5.02377 14.0233 7.63196 15.8362 10.86 15.8362C14.0881 15.8362 16.6963 14.0233 16.6963 11.7777C16.6963 11.6256 16.6846 11.4853 16.6612 11.3449C17.1407 11.111 17.5033 10.5964 17.5033 9.99991ZM7.5033 11.0408C7.5033 10.4677 7.97114 9.99991 8.54424 9.99991C9.11734 9.99991 9.58517 10.4677 9.58517 11.0408C9.58517 11.6139 9.11734 12.0818 8.54424 12.0818C7.97114 12.0818 7.5033 11.6139 7.5033 11.0408ZM13.3162 13.7894C12.6027 14.5028 11.246 14.5496 10.8483 14.5496C10.4507 14.5496 9.08225 14.4911 8.38049 13.7894C8.27523 13.6841 8.27523 13.5087 8.38049 13.4034C8.48576 13.2982 8.6612 13.2982 8.76646 13.4034C9.2109 13.8479 10.17 14.0116 10.86 14.0116C11.5501 14.0116 12.4975 13.8479 12.9536 13.4034C13.0589 13.2982 13.2343 13.2982 13.3396 13.4034C13.4214 13.5204 13.4214 13.6841 13.3162 13.7894ZM13.129 12.0818C12.5559 12.0818 12.0881 11.6139 12.0881 11.0408C12.0881 10.4677 12.5559 9.99991 13.129 9.99991C13.7021 9.99991 14.17 10.4677 14.17 11.0408C14.17 11.6139 13.7021 12.0818 13.129 12.0818Z" fill="#181818"/>
</g>
<defs>
<clipPath id="clip0_238_17682">
<rect width="20" height="20" fill="white" transform="translate(0.836914)"/>
</clipPath>
</defs>
</svg>
