<svg width="180" height="54" viewBox="0 0 180 54" fill="none" xmlns="http://www.w3.org/2000/svg">
<path d="M173.074 53.333H6.82843C3.37415 53.333 0.5625 50.5134 0.5625 47.0618V6.59496C0.5625 3.14201 3.37415 0.333008 6.82843 0.333008H173.074C176.526 0.333008 179.438 3.14201 179.438 6.59496V47.0618C179.438 50.5134 176.526 53.333 173.074 53.333Z" fill="#404040"/>
<path d="M178.156 47.0631C178.156 49.8668 175.885 52.1378 173.076 52.1378H6.82935C4.02168 52.1378 1.74268 49.8668 1.74268 47.0631V6.59358C1.74268 3.79121 4.02168 1.51221 6.82935 1.51221H173.074C175.885 1.51221 178.155 3.79121 178.155 6.59358L178.156 47.0631Z" fill="black"/>
<path d="M61.3115 11.993C62.1995 11.993 62.9755 12.165 63.6395 12.509C64.3115 12.845 64.8275 13.333 65.1875 13.973C65.5555 14.605 65.7395 15.345 65.7395 16.193C65.7395 17.041 65.5555 17.777 65.1875 18.401C64.8275 19.025 64.3115 19.505 63.6395 19.841C62.9755 20.169 62.1995 20.333 61.3115 20.333H58.5875V11.993H61.3115ZM61.3115 19.217C62.2875 19.217 63.0355 18.953 63.5555 18.425C64.0755 17.897 64.3355 17.153 64.3355 16.193C64.3355 15.225 64.0755 14.469 63.5555 13.925C63.0355 13.381 62.2875 13.109 61.3115 13.109H59.9555V19.217H61.3115ZM70.8633 20.441C70.2393 20.441 69.6753 20.301 69.1713 20.021C68.6673 19.733 68.2713 19.333 67.9833 18.821C67.6953 18.301 67.5513 17.701 67.5513 17.021C67.5513 16.349 67.6993 15.753 67.9953 15.233C68.2913 14.713 68.6953 14.313 69.2073 14.033C69.7193 13.753 70.2913 13.613 70.9233 13.613C71.5553 13.613 72.1273 13.753 72.6393 14.033C73.1513 14.313 73.5553 14.713 73.8513 15.233C74.1473 15.753 74.2953 16.349 74.2953 17.021C74.2953 17.693 74.1433 18.289 73.8393 18.809C73.5353 19.329 73.1193 19.733 72.5913 20.021C72.0713 20.301 71.4953 20.441 70.8633 20.441ZM70.8633 19.253C71.2153 19.253 71.5433 19.169 71.8473 19.001C72.1593 18.833 72.4113 18.581 72.6033 18.245C72.7953 17.909 72.8913 17.501 72.8913 17.021C72.8913 16.541 72.7993 16.137 72.6153 15.809C72.4313 15.473 72.1873 15.221 71.8833 15.053C71.5793 14.885 71.2513 14.801 70.8993 14.801C70.5473 14.801 70.2193 14.885 69.9153 15.053C69.6193 15.221 69.3833 15.473 69.2073 15.809C69.0313 16.137 68.9433 16.541 68.9433 17.021C68.9433 17.733 69.1233 18.285 69.4833 18.677C69.8513 19.061 70.3113 19.253 70.8633 19.253ZM85.4277 13.721L83.3757 20.333H81.9357L80.6037 15.449L79.2717 20.333H77.8317L75.7677 13.721H77.1597L78.5397 19.037L79.9437 13.721H81.3717L82.7157 19.013L84.0837 13.721H85.4277ZM90.686 13.613C91.206 13.613 91.67 13.721 92.078 13.937C92.494 14.153 92.818 14.473 93.05 14.897C93.282 15.321 93.398 15.833 93.398 16.433V20.333H92.042V16.637C92.042 16.045 91.894 15.593 91.598 15.281C91.302 14.961 90.898 14.801 90.386 14.801C89.874 14.801 89.466 14.961 89.162 15.281C88.866 15.593 88.718 16.045 88.718 16.637V20.333H87.35V13.721H88.718V14.477C88.942 14.205 89.226 13.993 89.57 13.841C89.922 13.689 90.294 13.613 90.686 13.613ZM97.411 11.453V20.333H96.043V11.453H97.411ZM102.975 20.441C102.351 20.441 101.787 20.301 101.283 20.021C100.779 19.733 100.383 19.333 100.095 18.821C99.807 18.301 99.663 17.701 99.663 17.021C99.663 16.349 99.811 15.753 100.107 15.233C100.403 14.713 100.807 14.313 101.319 14.033C101.831 13.753 102.403 13.613 103.035 13.613C103.667 13.613 104.239 13.753 104.751 14.033C105.263 14.313 105.667 14.713 105.963 15.233C106.259 15.753 106.407 16.349 106.407 17.021C106.407 17.693 106.255 18.289 105.951 18.809C105.647 19.329 105.231 19.733 104.703 20.021C104.183 20.301 103.607 20.441 102.975 20.441ZM102.975 19.253C103.327 19.253 103.655 19.169 103.959 19.001C104.271 18.833 104.523 18.581 104.715 18.245C104.907 17.909 105.003 17.501 105.003 17.021C105.003 16.541 104.911 16.137 104.727 15.809C104.543 15.473 104.299 15.221 103.995 15.053C103.691 14.885 103.363 14.801 103.011 14.801C102.659 14.801 102.331 14.885 102.027 15.053C101.731 15.221 101.495 15.473 101.319 15.809C101.143 16.137 101.055 16.541 101.055 17.021C101.055 17.733 101.235 18.285 101.595 18.677C101.963 19.061 102.423 19.253 102.975 19.253ZM108.203 16.997C108.203 16.333 108.339 15.745 108.611 15.233C108.891 14.721 109.267 14.325 109.739 14.045C110.219 13.757 110.747 13.613 111.323 13.613C111.843 13.613 112.295 13.717 112.679 13.925C113.071 14.125 113.383 14.377 113.615 14.681V13.721H114.995V20.333H113.615V19.349C113.383 19.661 113.067 19.921 112.667 20.129C112.267 20.337 111.811 20.441 111.299 20.441C110.731 20.441 110.211 20.297 109.739 20.009C109.267 19.713 108.891 19.305 108.611 18.785C108.339 18.257 108.203 17.661 108.203 16.997ZM113.615 17.021C113.615 16.565 113.519 16.169 113.327 15.833C113.143 15.497 112.899 15.241 112.595 15.065C112.291 14.889 111.963 14.801 111.611 14.801C111.259 14.801 110.931 14.889 110.627 15.065C110.323 15.233 110.075 15.485 109.883 15.821C109.699 16.149 109.607 16.541 109.607 16.997C109.607 17.453 109.699 17.853 109.883 18.197C110.075 18.541 110.323 18.805 110.627 18.989C110.939 19.165 111.267 19.253 111.611 19.253C111.963 19.253 112.291 19.165 112.595 18.989C112.899 18.813 113.143 18.557 113.327 18.221C113.519 17.877 113.615 17.477 113.615 17.021ZM117.236 16.997C117.236 16.333 117.372 15.745 117.644 15.233C117.924 14.721 118.3 14.325 118.772 14.045C119.252 13.757 119.784 13.613 120.368 13.613C120.8 13.613 121.224 13.709 121.64 13.901C122.064 14.085 122.4 14.333 122.648 14.645V11.453H124.028V20.333H122.648V19.337C122.424 19.657 122.112 19.921 121.712 20.129C121.32 20.337 120.868 20.441 120.356 20.441C119.78 20.441 119.252 20.297 118.772 20.009C118.3 19.713 117.924 19.305 117.644 18.785C117.372 18.257 117.236 17.661 117.236 16.997ZM122.648 17.021C122.648 16.565 122.552 16.169 122.36 15.833C122.176 15.497 121.932 15.241 121.628 15.065C121.324 14.889 120.996 14.801 120.644 14.801C120.292 14.801 119.964 14.889 119.66 15.065C119.356 15.233 119.108 15.485 118.916 15.821C118.732 16.149 118.64 16.541 118.64 16.997C118.64 17.453 118.732 17.853 118.916 18.197C119.108 18.541 119.356 18.805 119.66 18.989C119.972 19.165 120.3 19.253 120.644 19.253C120.996 19.253 121.324 19.165 121.628 18.989C121.932 18.813 122.176 18.557 122.36 18.221C122.552 17.877 122.648 17.477 122.648 17.021ZM135.77 18.629H132.278L131.678 20.333H130.25L133.238 11.981H134.822L137.81 20.333H136.37L135.77 18.629ZM135.386 17.513L134.03 13.637L132.662 17.513H135.386ZM145.841 14.477C145.841 14.901 145.741 15.301 145.541 15.677C145.341 16.053 145.021 16.361 144.581 16.601C144.141 16.833 143.577 16.949 142.889 16.949H141.377V20.333H140.009V11.993H142.889C143.529 11.993 144.069 12.105 144.509 12.329C144.957 12.545 145.289 12.841 145.505 13.217C145.729 13.593 145.841 14.013 145.841 14.477ZM142.889 15.833C143.409 15.833 143.797 15.717 144.053 15.485C144.309 15.245 144.437 14.909 144.437 14.477C144.437 13.565 143.921 13.109 142.889 13.109H141.377V15.833H142.889ZM152.642 20.333L149.414 16.601V20.333H148.046V11.993H149.414V15.797L152.654 11.993H154.37L150.746 16.169L154.43 20.333H152.642Z" fill="white"/>
<path d="M66.5795 36.777H61.3415L60.4415 39.333H58.2995L62.7815 26.805H65.1575L69.6395 39.333H67.4795L66.5795 36.777ZM66.0035 35.103L63.9695 29.289L61.9175 35.103H66.0035ZM73.2803 30.873C73.6283 30.417 74.1023 30.033 74.7023 29.721C75.3023 29.409 75.9803 29.253 76.7363 29.253C77.6003 29.253 78.3863 29.469 79.0943 29.901C79.8143 30.321 80.3783 30.915 80.7863 31.683C81.1943 32.451 81.3983 33.333 81.3983 34.329C81.3983 35.325 81.1943 36.219 80.7863 37.011C80.3783 37.791 79.8143 38.403 79.0943 38.847C78.3863 39.279 77.6003 39.495 76.7363 39.495C75.9803 39.495 75.3083 39.345 74.7203 39.045C74.1323 38.733 73.6523 38.349 73.2803 37.893V44.049H71.2283V29.415H73.2803V30.873ZM79.3103 34.329C79.3103 33.645 79.1663 33.057 78.8783 32.565C78.6023 32.061 78.2303 31.683 77.7623 31.431C77.3063 31.167 76.8143 31.035 76.2863 31.035C75.7703 31.035 75.2783 31.167 74.8103 31.431C74.3543 31.695 73.9823 32.079 73.6943 32.583C73.4183 33.087 73.2803 33.681 73.2803 34.365C73.2803 35.049 73.4183 35.649 73.6943 36.165C73.9823 36.669 74.3543 37.053 74.8103 37.317C75.2783 37.581 75.7703 37.713 76.2863 37.713C76.8143 37.713 77.3063 37.581 77.7623 37.317C78.2303 37.041 78.6023 36.645 78.8783 36.129C79.1663 35.613 79.3103 35.013 79.3103 34.329ZM85.1195 30.873C85.4675 30.417 85.9415 30.033 86.5415 29.721C87.1415 29.409 87.8195 29.253 88.5755 29.253C89.4395 29.253 90.2255 29.469 90.9335 29.901C91.6535 30.321 92.2175 30.915 92.6255 31.683C93.0335 32.451 93.2375 33.333 93.2375 34.329C93.2375 35.325 93.0335 36.219 92.6255 37.011C92.2175 37.791 91.6535 38.403 90.9335 38.847C90.2255 39.279 89.4395 39.495 88.5755 39.495C87.8195 39.495 87.1475 39.345 86.5595 39.045C85.9715 38.733 85.4915 38.349 85.1195 37.893V44.049H83.0675V29.415H85.1195V30.873ZM91.1495 34.329C91.1495 33.645 91.0055 33.057 90.7175 32.565C90.4415 32.061 90.0695 31.683 89.6015 31.431C89.1455 31.167 88.6535 31.035 88.1255 31.035C87.6095 31.035 87.1175 31.167 86.6495 31.431C86.1935 31.695 85.8215 32.079 85.5335 32.583C85.2575 33.087 85.1195 33.681 85.1195 34.365C85.1195 35.049 85.2575 35.649 85.5335 36.165C85.8215 36.669 86.1935 37.053 86.6495 37.317C87.1175 37.581 87.6095 37.713 88.1255 37.713C88.6535 37.713 89.1455 37.581 89.6015 37.317C90.0695 37.041 90.4415 36.645 90.7175 36.129C91.0055 35.613 91.1495 35.013 91.1495 34.329ZM101.275 26.823V39.333H99.2225V26.823H101.275ZM108.613 29.253C109.393 29.253 110.089 29.415 110.701 29.739C111.325 30.063 111.811 30.543 112.159 31.179C112.507 31.815 112.681 32.583 112.681 33.483V39.333H110.647V33.789C110.647 32.901 110.425 32.223 109.981 31.755C109.537 31.275 108.931 31.035 108.163 31.035C107.395 31.035 106.783 31.275 106.327 31.755C105.883 32.223 105.661 32.901 105.661 33.789V39.333H103.609V29.415H105.661V30.549C105.997 30.141 106.423 29.823 106.939 29.595C107.467 29.367 108.025 29.253 108.613 29.253ZM118.538 39.495C117.758 39.495 117.056 39.357 116.432 39.081C115.82 38.793 115.334 38.409 114.974 37.929C114.614 37.437 114.422 36.891 114.398 36.291H116.522C116.558 36.711 116.756 37.065 117.116 37.353C117.488 37.629 117.95 37.767 118.502 37.767C119.078 37.767 119.522 37.659 119.834 37.443C120.158 37.215 120.32 36.927 120.32 36.579C120.32 36.207 120.14 35.931 119.78 35.751C119.432 35.571 118.874 35.373 118.106 35.157C117.362 34.953 116.756 34.755 116.288 34.563C115.82 34.371 115.412 34.077 115.064 33.681C114.728 33.285 114.56 32.763 114.56 32.115C114.56 31.587 114.716 31.107 115.028 30.675C115.34 30.231 115.784 29.883 116.36 29.631C116.948 29.379 117.62 29.253 118.376 29.253C119.504 29.253 120.41 29.541 121.094 30.117C121.79 30.681 122.162 31.455 122.21 32.439H120.158C120.122 31.995 119.942 31.641 119.618 31.377C119.294 31.113 118.856 30.981 118.304 30.981C117.764 30.981 117.35 31.083 117.062 31.287C116.774 31.491 116.63 31.761 116.63 32.097C116.63 32.361 116.726 32.583 116.918 32.763C117.11 32.943 117.344 33.087 117.62 33.195C117.896 33.291 118.304 33.417 118.844 33.573C119.564 33.765 120.152 33.963 120.608 34.167C121.076 34.359 121.478 34.647 121.814 35.031C122.15 35.415 122.324 35.925 122.336 36.561C122.336 37.125 122.18 37.629 121.868 38.073C121.556 38.517 121.112 38.865 120.536 39.117C119.972 39.369 119.306 39.495 118.538 39.495ZM126.587 31.089V36.579C126.587 36.951 126.671 37.221 126.839 37.389C127.019 37.545 127.319 37.623 127.739 37.623H128.999V39.333H127.379C126.455 39.333 125.747 39.117 125.255 38.685C124.763 38.253 124.517 37.551 124.517 36.579V31.089H123.347V29.415H124.517V26.949H126.587V29.415H128.999V31.089H126.587ZM129.847 34.329C129.847 33.333 130.051 32.451 130.459 31.683C130.879 30.915 131.443 30.321 132.151 29.901C132.871 29.469 133.663 29.253 134.527 29.253C135.307 29.253 135.985 29.409 136.561 29.721C137.149 30.021 137.617 30.399 137.965 30.855V29.415H140.035V39.333H137.965V37.857C137.617 38.325 137.143 38.715 136.543 39.027C135.943 39.339 135.259 39.495 134.491 39.495C133.639 39.495 132.859 39.279 132.151 38.847C131.443 38.403 130.879 37.791 130.459 37.011C130.051 36.219 129.847 35.325 129.847 34.329ZM137.965 34.365C137.965 33.681 137.821 33.087 137.533 32.583C137.257 32.079 136.891 31.695 136.435 31.431C135.979 31.167 135.487 31.035 134.959 31.035C134.431 31.035 133.939 31.167 133.483 31.431C133.027 31.683 132.655 32.061 132.367 32.565C132.091 33.057 131.953 33.645 131.953 34.329C131.953 35.013 132.091 35.613 132.367 36.129C132.655 36.645 133.027 37.041 133.483 37.317C133.951 37.581 134.443 37.713 134.959 37.713C135.487 37.713 135.979 37.581 136.435 37.317C136.891 37.053 137.257 36.669 137.533 36.165C137.821 35.649 137.965 35.049 137.965 34.365ZM144.422 26.013V39.333H142.37V26.013H144.422ZM148.808 26.013V39.333H146.756V26.013H148.808ZM160.232 34.131C160.232 34.503 160.208 34.839 160.16 35.139H152.582C152.642 35.931 152.936 36.567 153.464 37.047C153.992 37.527 154.64 37.767 155.408 37.767C156.512 37.767 157.292 37.305 157.748 36.381H159.962C159.662 37.293 159.116 38.043 158.324 38.631C157.544 39.207 156.572 39.495 155.408 39.495C154.46 39.495 153.608 39.285 152.852 38.865C152.108 38.433 151.52 37.833 151.088 37.065C150.668 36.285 150.458 35.385 150.458 34.365C150.458 33.345 150.662 32.451 151.07 31.683C151.49 30.903 152.072 30.303 152.816 29.883C153.572 29.463 154.436 29.253 155.408 29.253C156.344 29.253 157.178 29.457 157.91 29.865C158.642 30.273 159.212 30.849 159.62 31.593C160.028 32.325 160.232 33.171 160.232 34.131ZM158.09 33.483C158.078 32.727 157.808 32.121 157.28 31.665C156.752 31.209 156.098 30.981 155.318 30.981C154.61 30.981 154.004 31.209 153.5 31.665C152.996 32.109 152.696 32.715 152.6 33.483H158.09ZM163.943 30.855C164.243 30.351 164.639 29.961 165.131 29.685C165.635 29.397 166.229 29.253 166.913 29.253V31.377H166.391C165.587 31.377 164.975 31.581 164.555 31.989C164.147 32.397 163.943 33.105 163.943 34.113V39.333H161.891V29.415H163.943V30.855Z" fill="white"/>
<path d="M28.6458 23.9811L27.2583 22.6321C26.9499 22.3495 26.5835 22.2143 26.159 22.2267C25.7356 22.24 25.3826 22.388 25.0999 22.6707C24.8173 22.9533 24.676 23.313 24.676 23.7498C24.676 24.1866 24.8173 24.5464 25.0999 24.829L29.1083 28.8373C29.3909 29.12 29.7506 29.2613 30.1874 29.2613C30.6242 29.2613 30.9839 29.12 31.2666 28.8373L35.3135 24.7905C35.5961 24.5078 35.7313 24.1543 35.7189 23.7298C35.7056 23.3064 35.5576 22.9533 35.2749 22.6707C34.9923 22.388 34.6326 22.24 34.1958 22.2267C33.7589 22.2143 33.3992 22.3623 33.1166 22.6707L31.7291 23.9811V19.0863C31.7291 18.6495 31.5816 18.2898 31.2866 18.0071C30.9906 17.7245 30.6242 17.5832 30.1874 17.5832C29.7506 17.5832 29.3847 17.7307 29.0898 18.0256C28.7938 18.3216 28.6458 18.688 28.6458 19.1248V23.9811ZM24.0208 34.5415H36.3926C36.8294 34.5415 37.1892 34.3935 37.4718 34.0975C37.7544 33.8025 37.8958 33.4366 37.8958 32.9998C37.8958 32.563 37.7478 32.1966 37.4518 31.9006C37.1568 31.6057 36.7909 31.4582 36.3541 31.4582H23.9822C23.5454 31.4582 23.1857 31.6057 22.903 31.9006C22.6204 32.1966 22.4791 32.563 22.4791 32.9998C22.4791 33.4366 22.6266 33.8025 22.9215 34.0975C23.2175 34.3935 23.5839 34.5415 24.0208 34.5415ZM30.1874 42.2498C28.0548 42.2498 26.0506 41.8449 24.1749 41.035C22.2992 40.2261 20.6676 39.128 19.2801 37.7405C17.8926 36.353 16.7944 34.7214 15.9856 32.8457C15.1757 30.97 14.7708 28.9658 14.7708 26.8332C14.7708 24.7005 15.1757 22.6964 15.9856 20.8207C16.7944 18.945 17.8926 17.3134 19.2801 15.9259C20.6676 14.5384 22.2992 13.4397 24.1749 12.6298C26.0506 11.8209 28.0548 11.4165 30.1874 11.4165C32.3201 11.4165 34.3242 11.8209 36.1999 12.6298C38.0756 13.4397 39.7072 14.5384 41.0947 15.9259C42.4822 17.3134 43.5804 18.945 44.3893 20.8207C45.1991 22.6964 45.6041 24.7005 45.6041 26.8332C45.6041 28.9658 45.1991 30.97 44.3893 32.8457C43.5804 34.7214 42.4822 36.353 41.0947 37.7405C39.7072 39.128 38.0756 40.2261 36.1999 41.035C34.3242 41.8449 32.3201 42.2498 30.1874 42.2498Z" fill="white"/>
</svg>
