<svg width="180" height="54" viewBox="0 0 180 54" fill="none" xmlns="http://www.w3.org/2000/svg">
<g clip-path="url(#clip0_2247_19256)">
<path d="M173.003 53.6743H6.75811C3.30384 53.6743 0.492188 50.8547 0.492188 47.4031V6.93627C0.492188 3.48332 3.30384 0.674316 6.75811 0.674316H173.003C176.456 0.674316 179.367 3.48332 179.367 6.93627V47.4031C179.367 50.8547 176.456 53.6743 173.003 53.6743Z" fill="#404040"/>
<path d="M178.085 47.4044C178.085 50.2081 175.814 52.4791 173.005 52.4791H6.75855C3.95088 52.4791 1.67188 50.2081 1.67188 47.4044V6.93489C1.67188 4.13252 3.95088 1.85352 6.75855 1.85352H173.004C175.814 1.85352 178.084 4.13252 178.084 6.93489L178.085 47.4044Z" fill="black"/>
<path d="M40.4117 26.8878C40.3733 22.6173 43.9084 20.5397 44.0701 20.443C42.068 17.524 38.9648 17.1252 37.8744 17.0934C35.2681 16.8191 32.74 18.6529 31.4123 18.6529C30.0582 18.6529 28.0137 17.1199 25.8102 17.1649C22.9747 17.2087 20.3221 18.8503 18.8672 21.3996C15.8648 26.5976 18.104 34.2362 20.9806 38.4378C22.4196 40.4955 24.101 42.7931 26.3018 42.7123C28.4549 42.6235 29.2592 41.3396 31.8575 41.3396C34.432 41.3396 35.1873 42.7123 37.4318 42.6606C39.7426 42.6235 41.1975 40.5936 42.5861 38.5173C44.2489 36.1588 44.9167 33.8361 44.9432 33.7168C44.8889 33.6983 40.4555 32.0063 40.4117 26.8878Z" fill="white"/>
<path d="M36.171 14.3295C37.3291 12.8813 38.1214 10.911 37.9015 8.91162C36.2254 8.98582 34.1292 10.071 32.9221 11.4874C31.8542 12.7356 30.9002 14.7814 31.1466 16.7053C33.0295 16.8457 34.9626 15.7552 36.171 14.3295Z" fill="white"/>
<path d="M71.5719 42.4168H68.5628L66.9145 37.2374H61.1852L59.6151 42.4168H56.6855L62.3618 24.7837H65.8678L71.5719 42.4168ZM66.4177 35.0644L64.927 30.46C64.7694 29.9896 64.4739 28.8819 64.038 27.1382H63.985C63.8114 27.8882 63.5318 28.9959 63.1476 30.46L61.6834 35.0644H66.4177Z" fill="white"/>
<path d="M86.1701 35.9034C86.1701 38.0658 85.5858 39.7751 84.4171 41.0299C83.3704 42.1468 82.0706 42.7047 80.519 42.7047C78.8442 42.7047 77.6411 42.1031 76.9084 40.9H76.8554V47.5979H74.0305V33.8881C74.0305 32.5287 73.9947 31.1334 73.9258 29.7024H76.4102L76.5678 31.7178H76.6208C77.5629 30.1993 78.9926 29.4414 80.9112 29.4414C82.4111 29.4414 83.6632 30.0337 84.6649 31.2196C85.6693 32.4068 86.1701 33.9676 86.1701 35.9034ZM83.2922 36.0068C83.2922 34.7692 83.014 33.749 82.4548 32.946C81.844 32.1086 81.0238 31.6899 79.9956 31.6899C79.2987 31.6899 78.6653 31.9231 78.0995 32.3829C77.5324 32.8467 77.1614 33.4522 76.9879 34.2021C76.9004 34.5519 76.8567 34.8381 76.8567 35.0634V37.1834C76.8567 38.1082 77.1402 38.8887 77.7073 39.526C78.2744 40.1633 79.0111 40.4813 79.9174 40.4813C80.9814 40.4813 81.8095 40.0706 82.4018 39.2517C82.9954 38.4315 83.2922 37.3503 83.2922 36.0068Z" fill="white"/>
<path d="M100.794 35.9034C100.794 38.0658 100.209 39.7751 99.0395 41.0299C97.9941 42.1468 96.6942 42.7047 95.1427 42.7047C93.4679 42.7047 92.2648 42.1031 91.5334 40.9H91.4804V47.5979H88.6555V33.8881C88.6555 32.5287 88.6197 31.1334 88.5508 29.7024H91.0352L91.1928 31.7178H91.2458C92.1866 30.1993 93.6163 29.4414 95.5362 29.4414C97.0348 29.4414 98.2869 30.0337 99.2912 31.2196C100.292 32.4068 100.794 33.9676 100.794 35.9034ZM97.9159 36.0068C97.9159 34.7692 97.6363 33.749 97.0772 32.946C96.4663 32.1086 95.6488 31.6899 94.6193 31.6899C93.921 31.6899 93.289 31.9231 92.7219 32.3829C92.1548 32.8467 91.7851 33.4522 91.6115 34.2021C91.5254 34.5519 91.4804 34.8381 91.4804 35.0634V37.1834C91.4804 38.1082 91.7639 38.8887 92.3284 39.526C92.8955 40.162 93.6322 40.4813 94.5411 40.4813C95.6051 40.4813 96.4332 40.0706 97.0255 39.2517C97.6191 38.4315 97.9159 37.3503 97.9159 36.0068Z" fill="white"/>
<path d="M117.144 37.472C117.144 38.9719 116.624 40.1922 115.578 41.1343C114.429 42.1638 112.83 42.6779 110.775 42.6779C108.878 42.6779 107.357 42.3122 106.205 41.5795L106.86 39.2249C108.1 39.9749 109.461 40.3512 110.943 40.3512C112.007 40.3512 112.835 40.11 113.43 39.6304C114.023 39.1507 114.318 38.5068 114.318 37.7038C114.318 36.9883 114.074 36.3855 113.585 35.8965C113.099 35.4076 112.287 34.9531 111.153 34.5331C108.065 33.3817 106.523 31.695 106.523 29.4769C106.523 28.0274 107.064 26.8388 108.146 25.914C109.225 24.9878 110.664 24.5254 112.463 24.5254C114.068 24.5254 115.401 24.805 116.465 25.3628L115.758 27.6656C114.765 27.125 113.641 26.8547 112.384 26.8547C111.39 26.8547 110.613 27.0999 110.057 27.5875C109.586 28.0234 109.351 28.5547 109.351 29.1841C109.351 29.881 109.62 30.4574 110.16 30.9106C110.631 31.3293 111.485 31.7824 112.725 32.2713C114.243 32.8822 115.357 33.5963 116.074 34.4152C116.788 35.2314 117.144 36.253 117.144 37.472Z" fill="white"/>
<path d="M126.484 31.8227H123.37V37.9959C123.37 39.566 123.918 40.3504 125.018 40.3504C125.523 40.3504 125.942 40.3067 126.273 40.2193L126.351 42.3644C125.795 42.5725 125.062 42.6771 124.154 42.6771C123.039 42.6771 122.167 42.3366 121.537 41.6569C120.911 40.9758 120.595 39.8337 120.595 38.2291V31.8201H118.74V29.7001H120.595V27.3721L123.37 26.5347V29.7001H126.484V31.8227Z" fill="white"/>
<path d="M140.534 35.9548C140.534 37.9091 139.975 39.5137 138.859 40.7685C137.689 42.0604 136.136 42.7043 134.2 42.7043C132.335 42.7043 130.849 42.0855 129.742 40.848C128.634 39.6104 128.08 38.0483 128.08 36.1654C128.08 34.1952 128.65 32.5813 129.793 31.3265C130.934 30.0704 132.474 29.4424 134.41 29.4424C136.275 29.4424 137.776 30.0612 138.909 31.3C139.993 32.5018 140.534 34.0534 140.534 35.9548ZM137.603 36.0462C137.603 34.8736 137.352 33.8679 136.845 33.0292C136.253 32.0142 135.406 31.5081 134.309 31.5081C133.173 31.5081 132.311 32.0155 131.719 33.0292C131.211 33.8692 130.961 34.8908 130.961 36.0992C130.961 37.2718 131.211 38.2775 131.719 39.1149C132.329 40.1298 133.183 40.636 134.284 40.636C135.362 40.636 136.209 40.1192 136.82 39.0884C137.341 38.2338 137.603 37.2175 137.603 36.0462Z" fill="white"/>
<path d="M149.715 32.1868C149.435 32.1351 149.137 32.1086 148.824 32.1086C147.831 32.1086 147.062 32.4836 146.521 33.2349C146.051 33.8974 145.815 34.7348 145.815 35.7458V42.4171H142.992L143.018 33.7066C143.018 32.2411 142.982 30.9069 142.912 29.7038H145.373L145.476 32.1365H145.554C145.852 31.3004 146.323 30.6273 146.967 30.1225C147.596 29.668 148.276 29.4414 149.008 29.4414C149.269 29.4414 149.505 29.46 149.715 29.4931V32.1868Z" fill="white"/>
<path d="M162.35 35.4582C162.35 35.9643 162.317 36.391 162.247 36.7394H153.772C153.805 37.9955 154.215 38.9562 155.002 39.6187C155.716 40.2109 156.64 40.5077 157.774 40.5077C159.029 40.5077 160.173 40.3077 161.203 39.9062L161.645 41.8672C160.442 42.3919 159.022 42.6529 157.383 42.6529C155.411 42.6529 153.864 42.0726 152.738 40.9132C151.614 39.7538 151.051 38.1969 151.051 36.2439C151.051 34.3266 151.574 32.73 152.622 31.4567C153.719 30.0972 155.202 29.4175 157.068 29.4175C158.9 29.4175 160.287 30.0972 161.229 31.4567C161.975 32.5365 162.35 33.8721 162.35 35.4582ZM159.657 34.7254C159.675 33.888 159.491 33.1646 159.108 32.5538C158.619 31.768 157.868 31.3758 156.857 31.3758C155.933 31.3758 155.182 31.7588 154.608 32.5273C154.138 33.1381 153.858 33.8708 153.772 34.7241H159.657V34.7254Z" fill="white"/>
<path d="M65.4819 13.9361C65.4819 15.4956 65.0142 16.6696 64.08 17.4579C63.2148 18.1854 61.9852 18.5497 60.3926 18.5497C59.6029 18.5497 58.9271 18.5153 58.3613 18.4464V9.92532C59.0994 9.80607 59.8944 9.74512 60.753 9.74512C62.2701 9.74512 63.4136 10.075 64.1847 10.7349C65.0486 11.4809 65.4819 12.5475 65.4819 13.9361ZM64.0178 13.9745C64.0178 12.9635 63.7501 12.1884 63.2148 11.6478C62.6795 11.1085 61.8978 10.8382 60.8682 10.8382C60.431 10.8382 60.0587 10.8674 59.7499 10.9283V17.4063C59.9209 17.4328 60.2336 17.4447 60.688 17.4447C61.7507 17.4447 62.5709 17.1492 63.1486 16.5583C63.7263 15.9673 64.0178 15.1061 64.0178 13.9745Z" fill="white"/>
<path d="M73.2445 15.2982C73.2445 16.2588 72.9702 17.0458 72.4217 17.6633C71.8466 18.298 71.0847 18.6146 70.1334 18.6146C69.2165 18.6146 68.4864 18.3112 67.9418 17.7017C67.3986 17.0935 67.127 16.3264 67.127 15.4015C67.127 14.4343 67.4065 13.6406 67.9683 13.0245C68.5301 12.4083 69.2854 12.0996 70.2367 12.0996C71.1536 12.0996 71.8903 12.403 72.4482 13.0112C72.9782 13.6022 73.2445 14.3654 73.2445 15.2982ZM71.8042 15.3432C71.8042 14.7668 71.6797 14.2726 71.4319 13.8605C71.1404 13.3623 70.7257 13.1132 70.1864 13.1132C69.6286 13.1132 69.2046 13.3623 68.9131 13.8605C68.664 14.2726 68.5407 14.7748 68.5407 15.3684C68.5407 15.9448 68.6653 16.439 68.9131 16.8511C69.2138 17.3493 69.6325 17.5984 70.1731 17.5984C70.7031 17.5984 71.1192 17.3453 71.4186 16.8378C71.6757 16.4178 71.8042 15.9196 71.8042 15.3432Z" fill="white"/>
<path d="M83.6552 12.2271L81.7008 18.4731H80.4288L79.6193 15.7608C79.4139 15.0838 79.2469 14.4107 79.1171 13.7429H79.0919C78.9713 14.4292 78.8044 15.101 78.5897 15.7608L77.7298 18.4731H76.4432L74.6055 12.2271H76.0325L76.7387 15.1964C76.9096 15.8986 77.0501 16.5678 77.1627 17.2011H77.1879C77.2912 16.6791 77.4622 16.0139 77.7033 15.2096L78.5897 12.2284H79.7213L80.5706 15.146C80.776 15.8576 80.9429 16.5426 81.0715 17.2024H81.1099C81.204 16.5598 81.3457 15.8748 81.5339 15.146L82.2918 12.2284H83.6552V12.2271Z" fill="white"/>
<path d="M90.8538 18.4729H89.4652V14.8954C89.4652 13.793 89.0465 13.2418 88.2064 13.2418C87.7944 13.2418 87.4618 13.3929 87.2034 13.6963C86.9477 13.9997 86.8179 14.3575 86.8179 14.7669V18.4716H85.4292V14.0117C85.4292 13.4631 85.412 12.8682 85.3789 12.2242H86.5992L86.6642 13.2008H86.7026C86.8642 12.8973 87.1054 12.6469 87.4221 12.4468C87.7984 12.2136 88.2197 12.0957 88.6808 12.0957C89.2638 12.0957 89.7488 12.2839 90.1343 12.6615C90.614 13.1239 90.8538 13.8142 90.8538 14.7311V18.4729Z" fill="white"/>
<path d="M94.6822 18.4729H93.2949V9.36084H94.6822V18.4729Z" fill="white"/>
<path d="M102.858 15.2982C102.858 16.2588 102.583 17.0458 102.035 17.6633C101.46 18.298 100.697 18.6146 99.7467 18.6146C98.8284 18.6146 98.0984 18.3112 97.5551 17.7017C97.0119 17.0935 96.7402 16.3264 96.7402 15.4015C96.7402 14.4343 97.0198 13.6406 97.5816 13.0245C98.1434 12.4083 98.8987 12.0996 99.8487 12.0996C100.767 12.0996 101.502 12.403 102.061 13.0112C102.591 13.6022 102.858 14.3654 102.858 15.2982ZM101.416 15.3432C101.416 14.7668 101.292 14.2726 101.044 13.8605C100.754 13.3623 100.338 13.1132 99.7997 13.1132C99.2405 13.1132 98.8165 13.3623 98.5263 13.8605C98.2772 14.2726 98.154 14.7748 98.154 15.3684C98.154 15.9448 98.2786 16.439 98.5263 16.8511C98.8271 17.3493 99.2458 17.5984 99.7864 17.5984C100.316 17.5984 100.731 17.3453 101.031 16.8378C101.289 16.4178 101.416 15.9196 101.416 15.3432Z" fill="white"/>
<path d="M109.577 18.4729H108.33L108.227 17.7534H108.188C107.762 18.3271 107.154 18.6146 106.364 18.6146C105.774 18.6146 105.297 18.4252 104.938 18.0489C104.612 17.707 104.449 17.2817 104.449 16.7769C104.449 16.0137 104.767 15.432 105.407 15.0292C106.046 14.6264 106.944 14.429 108.101 14.4382V14.3216C108.101 13.4988 107.669 13.0881 106.804 13.0881C106.188 13.0881 105.644 13.2431 105.175 13.5505L104.893 12.6389C105.473 12.2798 106.19 12.0996 107.036 12.0996C108.668 12.0996 109.487 12.9609 109.487 14.6834V16.9836C109.487 17.6076 109.517 18.1045 109.577 18.4729ZM108.135 16.3264V15.3631C106.604 15.3366 105.838 15.7566 105.838 16.6218C105.838 16.9478 105.925 17.1916 106.104 17.3546C106.283 17.5175 106.511 17.5984 106.783 17.5984C107.087 17.5984 107.372 17.5016 107.632 17.3095C107.893 17.1161 108.053 16.8709 108.113 16.5702C108.127 16.5026 108.135 16.4204 108.135 16.3264Z" fill="white"/>
<path d="M117.468 18.4729H116.236L116.171 17.4698H116.133C115.739 18.233 115.069 18.6146 114.127 18.6146C113.374 18.6146 112.747 18.3192 112.251 17.7282C111.754 17.1373 111.506 16.3701 111.506 15.428C111.506 14.417 111.775 13.5982 112.315 12.9728C112.839 12.3898 113.48 12.0983 114.243 12.0983C115.082 12.0983 115.669 12.3805 116.003 12.9463H116.029V9.36084H117.419V16.7901C117.419 17.3983 117.435 17.9588 117.468 18.4729ZM116.029 15.8388V14.7973C116.029 14.6171 116.016 14.4714 115.991 14.3601C115.913 14.0262 115.745 13.7453 115.489 13.5187C115.23 13.2921 114.919 13.1782 114.56 13.1782C114.042 13.1782 113.636 13.3835 113.338 13.7956C113.043 14.2077 112.893 14.7337 112.893 15.3763C112.893 15.9938 113.035 16.4946 113.32 16.8802C113.621 17.291 114.026 17.4963 114.533 17.4963C114.989 17.4963 115.354 17.3254 115.631 16.9822C115.898 16.6656 116.029 16.284 116.029 15.8388Z" fill="white"/>
<path d="M129.344 15.2982C129.344 16.2588 129.07 17.0458 128.521 17.6633C127.946 18.298 127.186 18.6146 126.233 18.6146C125.317 18.6146 124.587 18.3112 124.041 17.7017C123.498 17.0935 123.227 16.3264 123.227 15.4015C123.227 14.4343 123.506 13.6406 124.068 13.0245C124.63 12.4083 125.385 12.0996 126.338 12.0996C127.253 12.0996 127.991 12.403 128.548 13.0112C129.078 13.6022 129.344 14.3654 129.344 15.2982ZM127.905 15.3432C127.905 14.7668 127.781 14.2726 127.533 13.8605C127.24 13.3623 126.827 13.1132 126.286 13.1132C125.729 13.1132 125.305 13.3623 125.013 13.8605C124.764 14.2726 124.64 14.7748 124.64 15.3684C124.64 15.9448 124.765 16.439 125.013 16.8511C125.313 17.3493 125.732 17.5984 126.273 17.5984C126.803 17.5984 127.22 17.3453 127.52 16.8378C127.775 16.4178 127.905 15.9196 127.905 15.3432Z" fill="white"/>
<path d="M136.811 18.4729H135.424V14.8954C135.424 13.793 135.005 13.2418 134.164 13.2418C133.752 13.2418 133.419 13.3929 133.162 13.6963C132.905 13.9997 132.777 14.3575 132.777 14.7669V18.4716H131.387V14.0117C131.387 13.4631 131.371 12.8682 131.338 12.2242H132.557L132.622 13.2008H132.66C132.823 12.8973 133.064 12.6469 133.38 12.4468C133.757 12.2136 134.177 12.0957 134.64 12.0957C135.221 12.0957 135.706 12.2839 136.092 12.6615C136.573 13.1239 136.811 13.8142 136.811 14.7311V18.4729Z" fill="white"/>
<path d="M146.156 13.2666H144.627V16.3008C144.627 17.072 144.898 17.4575 145.436 17.4575C145.685 17.4575 145.892 17.4363 146.055 17.3926L146.091 18.446C145.816 18.5493 145.456 18.601 145.012 18.601C144.464 18.601 144.037 18.4341 143.728 18.1002C143.418 17.7663 143.264 17.2045 143.264 16.4161V13.2666H142.352V12.2264H143.264V11.0816L144.625 10.6709V12.2251H146.154V13.2666H146.156Z" fill="white"/>
<path d="M153.509 18.4729H152.119V14.9219C152.119 13.8022 151.7 13.2418 150.861 13.2418C150.217 13.2418 149.777 13.5664 149.536 14.2156C149.495 14.3521 149.471 14.5191 149.471 14.7152V18.4715H148.084V9.36084H149.471V13.1252H149.498C149.935 12.4401 150.562 12.0983 151.374 12.0983C151.949 12.0983 152.425 12.2864 152.802 12.6641C153.273 13.1344 153.509 13.834 153.509 14.7589V18.4729Z" fill="white"/>
<path d="M161.09 15.0546C161.09 15.3037 161.072 15.513 161.039 15.6839H156.874C156.893 16.3014 157.091 16.7718 157.477 17.0977C157.829 17.3892 158.284 17.535 158.84 17.535C159.456 17.535 160.018 17.4369 160.524 17.2395L160.742 18.2041C160.149 18.4611 159.452 18.5897 158.646 18.5897C157.678 18.5897 156.916 18.3048 156.365 17.735C155.811 17.1653 155.537 16.4008 155.537 15.4415C155.537 14.4994 155.793 13.715 156.308 13.0896C156.846 12.4218 157.574 12.0879 158.492 12.0879C159.39 12.0879 160.073 12.4218 160.534 13.0896C160.906 13.6196 161.09 14.2755 161.09 15.0546ZM159.765 14.6955C159.776 14.2834 159.684 13.9283 159.496 13.6289C159.255 13.2433 158.888 13.0498 158.391 13.0498C157.938 13.0498 157.568 13.238 157.286 13.6156C157.056 13.9164 156.919 14.2755 156.874 14.6955H159.765Z" fill="white"/>
</g>
<defs>
<clipPath id="clip0_2247_19256">
<rect width="178.875" height="53" fill="white" transform="translate(0.492188 0.674316)"/>
</clipPath>
</defs>
</svg>
