<svg width="1593" height="1880" viewBox="0 0 1593 1880" fill="none"  xmlns="http://www.w3.org/2000/svg">
    <path style="box-shadow: 20px 20px 30px red"  d="M397 356.5L450.5 293L464 275.5L478.5 259.5L489.5 249.5L498 242L516 214L566 257L578.5 271.5L600 269L624.5 275.5L634.5 285L667 242L722 206.5L734.5 190L738.5 172.5L726 136V115.5L753.5 15.5L761 2H792.5L813 7L873.5 12L898 20.5L935 25L980.5 34L1023 42.5L1045.5 46L1079 81.5L1111.5 110L1134 128.5L1154.5 140L1163 145L1177.5 103.5L1295 152.5L1400.5 194L1407.5 204.5L1453.5 225.5L1482.5 242L1543 288L1590.5 323L1365 356.5L1351 359L1246 353L1273.5 418.5L1231 499.5L1192.5 563L1291 628L1270.5 663L1309.5 688.5L1323.5 752.5V760L1327.5 766.5L1364 934L1457 875L1465 934L1484.5 931L1498 941H1501.5L1521.5 1084.5L1546 1258L1557.5 1337L1310 1373V1332L1042.5 1118.5L959 1051L903 1134.5L706 1219H689L648.5 1208.5L626.5 1198L604 1187L578 1174.5L584.5 1151L653.5 1106.5L604 1027L590 999L578 965.5V952L590 923.5L584.5 903.5L572.5 881L563.5 875L528 897.5L519 903.5L488 952L470 989L413.5 1051L385.5 1082.5L362.5 1094.5L315.5 1106.5L249 1112.5L253.5 1141.5L261 1219H300.5L307.5 1226.5L329.5 1258V1267L337 1285.5L332.5 1300.5V1322.5L326.5 1340.5L332.5 1349L334.5 1366.5L309.5 1417.5V1428L321.5 1414.5L382 1461L337 1515L424 1573L396 1615.5L337 1573L315 1612.5L313 1637.5L303 1641.5L263.5 1612.5L254.5 1620H232L179.5 1677.5L169.5 1688L139.5 1713.5L92 1761.5L77 1786L51.5 1823L21.5 1857L2 1883" stroke="#C2474F" stroke-width="4" stroke-linecap="round" stroke-linejoin="round"/>
</svg>
